<svg width="147" height="29" viewBox="0 0 147 29" fill="none" xmlns="http://www.w3.org/2000/svg">
<path d="M1.5193 0.144152C1.20952 0.144152 0.974899 0.16017 0.815454 0.192204C0.656009 0.219661 0.526174 0.276865 0.425949 0.363814C0.330282 0.446187 0.234614 0.578898 0.138946 0.76195C0.120723 0.793985 0.0933898 0.810001 0.0569451 0.810001C0.0387225 0.810001 0.022778 0.803137 0.00911122 0.789408C1.64191e-08 0.775679 -0.00227782 0.757372 0.00227781 0.734492L0.152613 0H0.159446L0.439616 0.00686442C0.676509 0.0160168 0.899731 0.0205928 1.10929 0.0205928H2.83131C3.05909 0.0205928 3.30054 0.0160168 3.55565 0.00686442L3.84266 0L3.99299 0.734492V0.748221C3.99299 0.766528 3.98843 0.782543 3.97932 0.796272C3.97021 0.805423 3.95882 0.810001 3.94516 0.810001H3.93832C3.90188 0.810001 3.87682 0.798559 3.86316 0.775679C3.76749 0.588053 3.66954 0.450765 3.56932 0.363814C3.47365 0.276865 3.34609 0.219661 3.18665 0.192204C3.0272 0.16017 2.79031 0.144152 2.47597 0.144152H2.2368C2.21858 0.432458 2.20947 1.15551 2.20947 2.31331C2.20947 3.10043 2.21403 3.86467 2.22314 4.60602C2.22769 4.90347 2.34386 5.0728 2.57164 5.11399C2.58987 5.11858 2.5967 5.12999 2.59214 5.14831C2.59214 5.16663 2.58531 5.17577 2.57164 5.17577H1.43046C1.41679 5.17577 1.40768 5.16663 1.40313 5.14831C1.40313 5.12999 1.41224 5.11858 1.43046 5.11399C1.65824 5.0728 1.77441 4.90347 1.77897 4.60602C1.78808 3.86467 1.79263 3.10043 1.79263 2.31331C1.79263 1.15551 1.78352 0.432458 1.7653 0.144152H1.5193ZM5.59739 0.0274572C5.61563 0.0274572 5.62473 0.0366097 5.62473 0.0549149C5.62929 0.0732202 5.6202 0.084661 5.59739 0.089237C5.37872 0.130423 5.26255 0.288305 5.24889 0.562882L5.23522 2.01127C5.6817 2.02042 6.25571 2.025 6.95724 2.025C7.48572 2.025 7.83875 2.02272 8.01642 2.01814L8.00275 0.562882C7.98909 0.288305 7.87292 0.130423 7.65425 0.089237C7.63148 0.084661 7.62008 0.0732202 7.62008 0.0549149C7.62465 0.0366097 7.63605 0.0274572 7.65425 0.0274572H8.78176C8.8 0.0274572 8.8091 0.0366097 8.8091 0.0549149C8.81367 0.0732202 8.80457 0.084661 8.78176 0.089237C8.56309 0.130423 8.44692 0.288305 8.43326 0.562882C8.42416 1.22187 8.41959 1.89458 8.41959 2.58102C8.41959 3.25831 8.42416 3.9356 8.43326 4.61289C8.43326 4.90578 8.54943 5.0728 8.78176 5.11399C8.80457 5.11858 8.81367 5.12999 8.8091 5.14831C8.8091 5.16663 8.8 5.17577 8.78176 5.17577H7.65425C7.63605 5.17577 7.62465 5.16663 7.62008 5.14831C7.62008 5.12999 7.63148 5.11858 7.65425 5.11399C7.88658 5.0728 8.00275 4.90578 8.00275 4.61289C8.01189 4.02712 8.01642 3.44594 8.01642 2.86933V2.1417C7.67475 2.12797 7.19415 2.1211 6.57457 2.1211C5.95504 2.1211 5.50856 2.12797 5.23522 2.1417V2.86933C5.23522 3.44594 5.23979 4.02712 5.24889 4.61289C5.24889 4.90578 5.36506 5.0728 5.59739 5.11399C5.6202 5.11858 5.62929 5.12999 5.62473 5.14831C5.62473 5.16663 5.61563 5.17577 5.59739 5.17577H4.46988C4.45168 5.17577 4.44028 5.16663 4.43571 5.14831C4.43571 5.12999 4.44711 5.11858 4.46988 5.11399C4.70221 5.0728 4.81838 4.90578 4.81838 4.61289C4.82752 4.27426 4.83205 3.59695 4.83205 2.58102C4.83205 1.56509 4.82752 0.892374 4.81838 0.562882C4.80472 0.288305 4.68855 0.130423 4.46988 0.089237C4.44711 0.084661 4.43571 0.0732202 4.43571 0.0549149C4.44028 0.0366097 4.45168 0.0274572 4.46988 0.0274572H5.59739ZM9.39476 5.17577C9.37653 5.17577 9.36512 5.16663 9.36059 5.14831C9.36059 5.12999 9.37196 5.11858 9.39476 5.11399C9.48586 5.09567 9.56329 5.05448 9.6271 4.99043C9.69543 4.92638 9.73186 4.83482 9.73643 4.71585C9.7501 4.22162 9.75693 3.51458 9.75693 2.59475C9.75693 1.66577 9.7501 0.958731 9.73643 0.473645C9.73186 0.359236 9.69543 0.27 9.6271 0.205932C9.56329 0.141864 9.48586 0.102966 9.39476 0.089237C9.37196 0.084661 9.36059 0.0732202 9.36059 0.0549149C9.36512 0.0366097 9.37653 0.0274572 9.39476 0.0274572H12.299L12.4493 0.76195V0.775679C12.4493 0.793985 12.4447 0.810001 12.4356 0.82373C12.4265 0.832881 12.4151 0.837459 12.4015 0.837459H12.3946C12.3582 0.837459 12.3331 0.826016 12.3195 0.803137C12.2192 0.610933 12.119 0.469067 12.0188 0.377543C11.9186 0.286017 11.7819 0.221949 11.6088 0.185339C11.4402 0.144152 11.1919 0.123559 10.8639 0.123559C10.5769 0.123559 10.3514 0.132711 10.1874 0.151017C10.1783 0.35695 10.1692 0.974747 10.1601 2.00441C10.3696 2.01356 10.627 2.01814 10.9323 2.01814C11.119 2.01814 11.258 2.01127 11.3491 1.99754C11.4402 1.97924 11.5086 1.94721 11.5541 1.90144C11.6042 1.85568 11.643 1.78017 11.6703 1.67492C11.684 1.63373 11.709 1.61314 11.7455 1.61314C11.7637 1.61314 11.7773 1.62 11.7865 1.63373C11.8001 1.64746 11.807 1.66348 11.807 1.68178V2.45746C11.807 2.47577 11.8001 2.49178 11.7865 2.50551C11.7773 2.51924 11.7637 2.5261 11.7455 2.5261C11.709 2.5261 11.684 2.50551 11.6703 2.46432C11.643 2.35907 11.6042 2.28356 11.5541 2.2378C11.5086 2.19204 11.4402 2.16229 11.3491 2.14856C11.258 2.13026 11.119 2.1211 10.9323 2.1211C10.627 2.1211 10.3696 2.12568 10.1601 2.13483C10.1601 3.71365 10.1692 4.68612 10.1874 5.05221C10.3651 5.06594 10.5906 5.0728 10.8639 5.0728C11.3468 5.0728 11.7067 5.04535 11.9436 4.99043C12.1805 4.93092 12.34 4.85773 12.422 4.77077C12.5085 4.6838 12.6087 4.54197 12.7226 4.34517C12.7408 4.31313 12.7682 4.29712 12.8046 4.29712C12.8228 4.29712 12.8365 4.30399 12.8456 4.31772C12.8593 4.33145 12.8638 4.34977 12.8593 4.37263L12.709 5.17577H9.39476Z" fill="#FFF2DF"/>
<path d="M3.69994 6.69896C3.69994 6.75567 4.84694 9.49638 7.14129 14.9211C9.43546 20.3458 11.0244 24.0411 11.9084 26.0068C13.3188 22.4911 14.8702 18.5029 16.5627 14.0422C18.2738 9.56253 19.1389 7.11479 19.1578 6.69896H22.6837C22.7402 6.69896 22.7777 6.73676 22.7966 6.81237C22.8153 6.88798 22.7777 6.93523 22.6837 6.95413C21.9315 7.08644 21.4708 7.57788 21.3016 8.42844C21.2263 10.2619 21.1887 13.2483 21.1887 17.3877C21.1887 20.79 21.2169 23.5307 21.2734 25.6098C21.292 26.2525 21.4331 26.7533 21.6965 27.1125C21.9597 27.4527 22.2888 27.6512 22.6837 27.7079C22.7777 27.7268 22.8153 27.774 22.7966 27.8496C22.7777 27.9253 22.7402 27.963 22.6837 27.963H18.0295C17.9731 27.963 17.9353 27.9253 17.9166 27.8496C17.9166 27.774 17.9542 27.7268 18.0295 27.7079C18.9885 27.5378 19.4681 26.8384 19.4681 25.6098C19.5056 23.3039 19.5245 21.0357 19.5245 18.8053C19.5245 14.8171 19.4868 11.3109 19.4117 8.28668V8.11657L18.6218 10.0729C18.1141 11.585 17.3994 13.5224 16.478 15.885C15.5565 18.2288 14.6914 20.4119 13.8829 22.4344C12.4912 25.8933 11.786 27.7362 11.7674 27.963H10.8647C10.8647 27.8496 10.7612 27.5661 10.5544 27.1125C9.9714 25.7326 8.79602 23.0109 7.02845 18.9471C5.9377 16.5277 4.97864 14.3446 4.15127 12.3977C4.11354 15.3464 4.09485 17.7846 4.09485 19.7126C4.09485 21.8295 4.11354 23.9277 4.15127 26.0068C4.16996 26.5171 4.32052 26.914 4.60259 27.1975C4.88467 27.4621 5.22316 27.6322 5.61807 27.7079C5.71203 27.7268 5.74959 27.774 5.7309 27.8496C5.7309 27.9253 5.69317 27.963 5.61807 27.963H1.95107C1.89465 27.963 1.85692 27.9253 1.83823 27.8496C1.81937 27.774 1.85692 27.7268 1.95107 27.7079C2.34597 27.6322 2.68447 27.4621 2.96654 27.1975C3.24862 26.914 3.39901 26.5171 3.41787 26.0068C3.45542 24.3434 3.47428 22.4533 3.47428 20.3363C3.47428 16.5939 3.44607 13.3617 3.38966 10.6399L2.59984 8.74032C2.33645 8.11657 1.99796 7.69129 1.58436 7.46447C1.17059 7.23765 0.681719 7.06754 0.117565 6.95413C0.0234214 6.93523 -0.0141343 6.88798 0.00472958 6.81237C0.0234172 6.73676 0.0611492 6.69896 0.117565 6.69896H3.69994ZM36.5168 28.36C34.561 28.36 32.7275 27.9157 31.0163 27.0274C29.305 26.1202 27.9321 24.8349 26.898 23.1715C25.8636 21.5082 25.3466 19.5803 25.3466 17.3877C25.3466 15.1762 25.8636 13.2294 26.898 11.5472C27.9321 9.86496 29.2956 8.5702 30.9881 7.66294C32.6993 6.75567 34.5423 6.30203 36.5168 6.30203C38.4913 6.30203 40.3342 6.75567 42.0455 7.66294C43.7567 8.5702 45.1295 9.86496 46.1639 11.5472C47.198 13.2294 47.7153 15.1762 47.7153 17.3877C47.7153 19.5803 47.198 21.5082 46.1639 23.1715C45.1295 24.8349 43.7567 26.1202 42.0455 27.0274C40.3342 27.9157 38.4913 28.36 36.5168 28.36ZM36.6014 27.8213C38.3503 27.8213 39.9204 27.3866 41.3121 26.5171C42.7036 25.6288 43.7849 24.419 44.556 22.888C45.3458 21.3381 45.7407 19.6086 45.7407 17.6996C45.7407 17.4728 45.7219 17.0947 45.6843 16.5655C45.5151 14.6754 44.9978 12.9931 44.1329 11.5188C43.2867 10.0445 42.1866 8.89152 40.8326 8.05987C39.4973 7.2282 38.0212 6.81237 36.404 6.81237C34.6926 6.81237 33.1412 7.26601 31.7497 8.17327C30.3769 9.08054 29.2956 10.328 28.5058 11.9158C27.7347 13.5035 27.3493 15.2613 27.3493 17.1892C27.3493 17.5862 27.3586 17.8886 27.3775 18.0965C27.509 19.9867 27.9886 21.6689 28.8161 23.1432C29.6623 24.6175 30.7624 25.7705 32.1164 26.6021C33.4704 27.415 34.9654 27.8213 36.6014 27.8213ZM65.4028 27.963C60.3065 20.7238 56.0753 14.8738 52.7093 10.4131C52.6717 13.2105 52.6529 15.7433 52.6529 18.0115C52.6529 20.2985 52.6717 22.803 52.7093 25.5248C52.7281 26.2052 52.8785 26.7249 53.1606 27.0841C53.4427 27.4244 53.8 27.6322 54.2325 27.7079C54.3265 27.7268 54.3642 27.774 54.3453 27.8496C54.3265 27.9253 54.2889 27.963 54.2325 27.963H50.4809C50.4245 27.963 50.3869 27.9253 50.368 27.8496C50.3492 27.774 50.3869 27.7268 50.4809 27.7079C50.8947 27.6322 51.2425 27.415 51.5246 27.0558C51.8066 26.6966 51.957 26.1863 51.9759 25.5248C52.0134 24.2395 52.0323 21.6122 52.0323 17.6429C52.0323 13.598 52.0134 10.8762 51.9759 9.47747L51.4963 8.82537C50.9511 8.18272 50.4338 7.72909 49.9449 7.46447C49.456 7.19985 48.8919 7.02974 48.2525 6.95413C48.1772 6.93523 48.149 6.88798 48.1678 6.81237C48.1678 6.73676 48.196 6.69896 48.2525 6.69896H52.258L65.572 25.1562C65.5909 23.852 65.6002 21.3759 65.6002 17.7279C65.6002 13.1916 65.5813 10.2146 65.5438 8.79702C65.5249 8.22998 65.3746 7.8047 65.0925 7.52118C64.8293 7.21875 64.4908 7.02974 64.077 6.95413C63.983 6.93523 63.936 6.88798 63.936 6.81237C63.9548 6.73676 64.0017 6.69896 64.077 6.69896H67.744C67.8004 6.69896 67.8286 6.73676 67.8286 6.81237C67.8475 6.88798 67.8193 6.93523 67.744 6.95413C66.7849 7.12424 66.2961 7.73854 66.2772 8.79702C66.2396 10.8384 66.2208 12.8892 66.2208 14.9494C66.2208 17.8603 66.2396 20.6955 66.2772 23.4551C66.3147 26.2146 66.3525 27.7173 66.39 27.963H65.4028ZM80.9382 6.86908C79.1517 6.86908 77.6096 7.29436 76.3121 8.14492C75.0145 8.99549 74.0179 10.2241 73.3221 11.8307C72.6451 13.4184 72.3066 15.2991 72.3066 17.4728C72.3066 19.5897 72.7204 21.4232 73.5477 22.9731C74.394 24.523 75.588 25.7138 77.1301 26.5454C78.6909 27.3583 80.5244 27.7646 82.6306 27.7646C83.3265 27.7646 84.0974 27.6418 84.9437 27.396C85.7899 27.1314 86.5044 26.7912 87.0874 26.3753C87.2942 26.0351 87.4448 25.3547 87.5388 24.334C87.6516 23.2944 87.708 22.1887 87.708 21.0168C87.708 20.4119 87.6234 19.9583 87.4541 19.6559C87.3038 19.3535 87.0592 19.1455 86.7207 19.0321C86.3823 18.9187 85.8934 18.862 85.254 18.862C85.2164 18.862 85.1787 18.8337 85.1411 18.777C85.1223 18.7203 85.1129 18.6541 85.1129 18.5785C85.1129 18.4084 85.16 18.3233 85.254 18.3233C85.4043 18.3233 85.7335 18.3044 86.2412 18.2666C86.749 18.2288 87.3224 18.1721 87.9619 18.0965C88.6013 18.0209 89.1466 17.9075 89.5979 17.7563C89.5227 17.9264 89.4662 18.5218 89.4287 19.5425C89.3911 20.5442 89.3723 21.6216 89.3723 22.7746C89.3723 24.6648 89.4193 25.7326 89.5133 25.9784V26.0068C88.5167 26.5361 87.6987 26.9424 87.0592 27.2259C86.4387 27.5094 85.6677 27.774 84.7462 28.0198C83.8247 28.2655 82.8374 28.3883 81.7844 28.3883C79.3961 28.3883 77.3276 27.9537 75.5787 27.0841C73.8487 26.1958 72.5229 24.9388 71.6014 23.3133C70.6988 21.6689 70.2474 19.722 70.2474 17.4728C70.2474 15.1668 70.7176 13.1727 71.6578 11.4905C72.598 9.80825 73.952 8.52294 75.7197 7.63458C77.5062 6.72731 79.6217 6.27368 82.0665 6.27368C83.2701 6.27368 84.3513 6.35874 85.3104 6.52885C86.2694 6.69896 87.4448 6.94468 88.8363 7.26601L89.3159 11.4621V11.5188C89.3159 11.5944 89.297 11.6511 89.2594 11.6889C89.2219 11.7267 89.1842 11.7456 89.1466 11.7456H89.0902C88.9774 11.7456 88.9021 11.6889 88.8645 11.5755C88.4132 9.89331 87.5576 8.69306 86.2976 7.97481C85.0376 7.23765 83.2512 6.86908 80.9382 6.86908ZM104.144 28.36C102.188 28.36 100.354 27.9157 98.6431 27.0274C96.9319 26.1202 95.5591 24.8349 94.5248 23.1715C93.4906 21.5082 92.9733 19.5803 92.9733 17.3877C92.9733 15.1762 93.4906 13.2294 94.5248 11.5472C95.5591 9.86496 96.9224 8.5702 98.6149 7.66294C100.326 6.75567 102.169 6.30203 104.144 6.30203C106.118 6.30203 107.961 6.75567 109.672 7.66294C111.384 8.5702 112.756 9.86496 113.79 11.5472C114.825 13.2294 115.342 15.1762 115.342 17.3877C115.342 19.5803 114.825 21.5082 113.79 23.1715C112.756 24.8349 111.384 26.1202 109.672 27.0274C107.961 27.9157 106.118 28.36 104.144 28.36ZM104.228 27.8213C105.977 27.8213 107.547 27.3866 108.939 26.5171C110.331 25.6288 111.412 24.419 112.183 22.888C112.972 21.3381 113.367 19.6086 113.367 17.6996C113.367 17.4728 113.348 17.0947 113.311 16.5655C113.142 14.6754 112.625 12.9931 111.76 11.5188C110.913 10.0445 109.813 8.89152 108.459 8.05987C107.124 7.2282 105.648 6.81237 104.031 6.81237C102.32 6.81237 100.768 7.26601 99.3765 8.17327C98.0038 9.08054 96.9224 10.328 96.1326 11.9158C95.3617 13.5035 94.9761 15.2613 94.9761 17.1892C94.9761 17.5862 94.9856 17.8886 95.0043 18.0965C95.136 19.9867 95.6155 21.6689 96.4429 23.1432C97.2891 24.6175 98.3892 25.7705 99.7432 26.6021C101.097 27.415 102.592 27.8213 104.228 27.8213ZM122.396 6.69896C122.471 6.69896 122.508 6.73676 122.508 6.81237C122.528 6.88798 122.489 6.93523 122.396 6.95413C121.437 7.14315 120.957 7.76689 120.957 8.82537C120.92 11.774 120.901 14.8738 120.901 18.1249C120.901 23.1148 120.938 26.2242 121.013 27.4527C121.69 27.5284 122.621 27.5661 123.806 27.5661C125.442 27.5661 126.664 27.4433 127.473 27.1975C128.3 26.9518 128.864 26.6589 129.165 26.3186C129.467 25.9784 129.862 25.383 130.35 24.5324C130.426 24.4001 130.539 24.334 130.689 24.334C130.764 24.334 130.821 24.3623 130.858 24.419C130.914 24.4757 130.934 24.5514 130.914 24.6458L130.294 27.963H117.741C117.666 27.963 117.62 27.9253 117.6 27.8496C117.6 27.774 117.648 27.7268 117.741 27.7079C118.681 27.5378 119.152 26.829 119.152 25.5815C119.208 23.6724 119.236 21.2342 119.236 18.2666C119.236 14.7699 119.208 11.6228 119.152 8.82537C119.132 7.74799 118.663 7.12424 117.741 6.95413C117.648 6.93523 117.6 6.88798 117.6 6.81237C117.62 6.73676 117.666 6.69896 117.741 6.69896H122.396ZM138.897 6.95413C137.617 6.95413 136.612 7.28491 135.879 7.94646C135.163 8.608 134.807 9.52473 134.807 10.6966C134.807 11.6984 135.061 12.5395 135.569 13.2199C136.076 13.9004 136.706 14.458 137.459 14.8927C138.21 15.3086 139.225 15.7905 140.505 16.3387C141.877 16.9246 142.977 17.4633 143.805 17.9548C144.632 18.4273 145.328 19.0699 145.893 19.8827C146.474 20.6766 146.767 21.6783 146.767 22.888C146.767 23.9464 146.474 24.8821 145.893 25.6949C145.328 26.5077 144.547 27.1408 143.551 27.5945C142.554 28.0481 141.436 28.2749 140.195 28.2749C139.103 28.2749 138.06 28.1615 137.064 27.9347C136.066 27.6889 134.957 27.3109 133.735 26.8006L133.425 22.2643C133.425 22.0564 133.481 21.9524 133.594 21.9524C133.687 21.9524 133.763 22.0375 133.82 22.2076C134.176 23.9844 134.966 25.3453 136.189 26.2903C137.411 27.2353 138.83 27.7079 140.449 27.7079C141.915 27.7079 143.1 27.3393 144.003 26.6021C144.905 25.846 145.357 24.8349 145.357 23.5685C145.357 22.6045 145.092 21.7917 144.567 21.1302C144.059 20.4497 143.419 19.9016 142.649 19.4858C141.896 19.051 140.889 18.5691 139.631 18.0398C138.238 17.4539 137.129 16.9152 136.302 16.4237C135.473 15.9323 134.768 15.2897 134.186 14.4958C133.603 13.683 133.312 12.6907 133.312 11.5188C133.312 10.5549 133.583 9.68538 134.13 8.91043C134.675 8.11657 135.417 7.49282 136.358 7.03919C137.298 6.58556 138.314 6.35874 139.405 6.35874C140.345 6.35874 141.256 6.4627 142.141 6.67061C143.044 6.85963 144.049 7.1715 145.159 7.60623L145.385 11.8023C145.385 11.9914 145.337 12.0859 145.244 12.0859H145.216C145.12 12.0859 145.055 12.0197 145.018 11.8874C144.886 11.0179 144.547 10.2052 144.003 9.44912C143.456 8.69306 142.742 8.08822 141.859 7.63458C140.974 7.18095 139.987 6.95413 138.897 6.95413Z" fill="#FFF2DF"/>
</svg>
