<svg width="90" height="90" viewBox="0 0 90 90" fill="none" xmlns="http://www.w3.org/2000/svg">
<path d="M12.7803 11.8594C19.0603 16.4194 25.0403 21.3394 30.8703 26.4194C36.7103 31.4894 42.3603 36.7694 47.9003 42.1694C53.3703 47.6394 58.7703 53.1994 63.8203 59.0894C66.3403 62.0494 68.8003 65.0494 71.1003 68.1894C73.4003 71.3194 75.5603 74.6094 77.2203 78.1194C74.7903 75.0794 72.2803 72.2094 69.5803 69.4594C66.9603 66.6594 64.2003 63.9794 61.5103 61.2294L45.0703 45.0494L36.8603 36.9194C34.1703 34.1594 31.3903 31.4894 28.7203 28.7094C23.3103 23.2094 17.9403 17.6594 12.7803 11.8594Z" fill="#FFF2DF"/>
<path d="M77.22 11.8594C72.45 17.9694 67.39 23.7894 62.24 29.5194C59.69 32.4094 57.03 35.1994 54.43 38.0394L46.46 46.3994L38.33 54.6094C35.56 57.2894 32.85 60.0294 30.03 62.6594C24.45 67.9794 18.76 73.1894 12.79 78.1294C17.56 72.0194 22.61 66.1894 27.77 60.4594C30.32 57.5694 32.98 54.7794 35.58 51.9394L43.56 43.5794L51.69 35.3694C54.45 32.6794 57.17 29.9494 59.99 27.3194C65.57 22.0194 71.25 16.7994 77.22 11.8594Z" fill="#FFF2DF"/>
</svg>
